{
  "accessors": [
    {
      "bufferView": 2,
      "componentType": 5126,
      "count": 480,
      "max": [
        -1.3127447366714478,
        3.76366925239563,
        0.08677999675273895
      ],
      "min": [
        -1.64682137966156,
        2.1263298988342285,
        -0.08677998930215836
      ],
      "type": "VEC3"
    },
    {
      "bufferView": 2,
      "byteOffset": 5760,
      "componentType": 5126,
      "count": 480,
      "max": [
        0.9924442172050476,
        0.9924428462982178,
        1.0
      ],
      "min": [
        -0.9924439787864685,
        -0.9924426674842834,
        -1.0
      ],
      "type": "VEC3"
    },
    {
      "bufferView": 1,
      "componentType": 5126,
      "count": 480,
      "max": [
        0.9269757270812988,
        0.5795449018478394
      ],
      "min": [
        -0.5061746835708618,
        0.001953125
      ],
      "type": "VEC2"
    },
    {
      "bufferView": 0,
      "componentType": 5125,
      "count": 2400,
      "type": "SCALAR"
    },
    {
      "bufferView": 2,
      "byteOffset": 11520,
      "componentType": 5126,
      "count": 480,
      "max": [
        -1.3116285800933838,
        3.786182165145874,
        0.1094871461391449
      ],
      "min": [
        -1.6420856714248657,
        2.118328332901001,
        -0.1094871386885643
      ],
      "type": "VEC3"
    },
    {
      "bufferView": 2,
      "byteOffset": 17280,
      "componentType": 5126,
      "count": 480,
      "max": [
        0.9914448857307434,
        0.991445004940033,
        1.0
      ],
      "min": [
        -0.991445004940033,
        -0.9914450645446777,
        -1.0
      ],
      "type": "VEC3"
    },
    {
      "bufferView": 1,
      "byteOffset": 3840,
      "componentType": 5126,
      "count": 480,
      "max": [
        0.9269757270812988,
        0.5795449018478394
      ],
      "min": [
        -0.5061746835708618,
        0.001953125
      ],
      "type": "VEC2"
    },
    {
      "bufferView": 0,
      "byteOffset": 9600,
      "componentType": 5125,
      "count": 2400,
      "type": "SCALAR"
    },
    {
      "bufferView": 2,
      "byteOffset": 23040,
      "componentType": 5126,
      "count": 6315,
      "max": [
        -0.9112057685852051,
        3.892867088317871,
        0.07291091233491898
      ],
      "min": [
        -1.9816704988479614,
        -3.0682730674743652,
        -0.07291090488433838
      ],
      "type": "VEC3"
    },
    {
      "bufferView": 2,
      "byteOffset": 98820,
      "componentType": 5126,
      "count": 6315,
      "max": [
        1.0,
        1.0,
        1.0
      ],
      "min": [
        -1.0,
        -1.0,
        -1.0
      ],
      "type": "VEC3"
    },
    {
      "bufferView": 3,
      "componentType": 5126,
      "count": 6315,
      "max": [
        0.9999954700469971,
        0.9365045428276062,
        1.0,
        1.0
      ],
      "min": [
        -0.9998916983604431,
        -0.9764607548713684,
        -1.0,
        -1.0
      ],
      "type": "VEC4"
    },
    {
      "bufferView": 1,
      "byteOffset": 7680,
      "componentType": 5126,
      "count": 6315,
      "max": [
        0.9847617149353027,
        0.9871201515197754
      ],
      "min": [
        -0.998046875,
        0.001953125
      ],
      "type": "VEC2"
    },
    {
      "bufferView": 0,
      "byteOffset": 19200,
      "componentType": 5125,
      "count": 28146,
      "type": "SCALAR"
    },
    {
      "bufferView": 2,
      "byteOffset": 174600,
      "componentType": 5126,
      "count": 11023,
      "max": [
        -1.4941211938858032,
        2.3837995529174805,
        0.11140737682580948
      ],
      "min": [
        -2.486514091491699,
        -3.1329641342163086,
        -0.11140742152929306
      ],
      "type": "VEC3"
    },
    {
      "bufferView": 2,
      "byteOffset": 306876,
      "componentType": 5126,
      "count": 11023,
      "max": [
        1.0,
        1.0,
        1.0
      ],
      "min": [
        -1.0,
        -1.0,
        -1.0
      ],
      "type": "VEC3"
    },
    {
      "bufferView": 3,
      "byteOffset": 101040,
      "componentType": 5126,
      "count": 11023,
      "max": [
        1.0,
        0.9999518990516663,
        1.0,
        1.0
      ],
      "min": [
        -1.0,
        -0.9999442100524902,
        -1.0,
        -1.0
      ],
      "type": "VEC4"
    },
    {
      "bufferView": 1,
      "byteOffset": 58200,
      "componentType": 5126,
      "count": 11023,
      "max": [
        0.9826352596282959,
        0.998046875
      ],
      "min": [
        -0.998046875,
        0.001953125
      ],
      "type": "VEC2"
    },
    {
      "bufferView": 0,
      "byteOffset": 131784,
      "componentType": 5125,
      "count": 55626,
      "type": "SCALAR"
    }
  ],
  "asset": {
    "extras": {
      "author": "Art_workshop (https://sketchfab.com/art_workshop)",
      "license": "CC-BY-4.0 (http://creativecommons.org/licenses/by/4.0/)",
      "source": "https://sketchfab.com/3d-models/elf-sword-and-scabbard-free-4e55414842114b598e8de7bdc43a7695",
      "title": "Elf Sword and Scabbard Free"
    },
    "generator": "Sketchfab-16.12.0",
    "version": "2.0"
  },
  "bufferViews": [
    {
      "buffer": 0,
      "byteLength": 354288,
      "name": "floatBufferViews",
      "target": 34963
    },
    {
      "buffer": 0,
      "byteLength": 146384,
      "byteOffset": 354288,
      "byteStride": 8,
      "name": "floatBufferViews",
      "target": 34962
    },
    {
      "buffer": 0,
      "byteLength": 439152,
      "byteOffset": 500672,
      "byteStride": 12,
      "name": "floatBufferViews",
      "target": 34962
    },
    {
      "buffer": 0,
      "byteLength": 277408,
      "byteOffset": 939824,
      "byteStride": 16,
      "name": "floatBufferViews",
      "target": 34962
    }
  ],
  "buffers": [
    {
      "byteLength": 1217232,
      "uri": "scene.bin"
    }
  ],
  "extensionsUsed": [
    "KHR_materials_emissive_strength",
    "KHR_materials_transmission",
    "KHR_materials_specular"
  ],
  "images": [
    {
      "uri": "textures/Sword_baseColor.png"
    },
    {
      "uri": "textures/Sword_metallicRoughness.png"
    },
    {
      "uri": "textures/Sword_normal.png"
    }
  ],
  "materials": [
    {
      "doubleSided": true,
      "emissiveFactor": [
        0.0,
        0.5638182897936994,
        1.0
      ],
      "extensions": {
        "KHR_materials_emissive_strength": {
          "emissiveStrength": 10.0
        }
      },
      "name": "gem_inside",
      "pbrMetallicRoughness": {
        "baseColorFactor": [
          1.0,
          0.0,
          0.0,
          1.0
        ],
        "metallicFactor": 0.0,
        "roughnessFactor": 0.6
      }
    },
    {
      "alphaMode": "BLEND",
      "doubleSided": true,
      "extensions": {
        "KHR_materials_specular": {
          "specularColorFactor": [
            1.0,
            1.0,
            1.0
          ],
          "specularFactor": 1.0
        },
        "KHR_materials_transmission": {
          "transmissionFactor": 0.4530088764525362
        }
      },
      "name": "material",
      "pbrMetallicRoughness": {
        "baseColorFactor": [
          0.0,
          1.0,
          1.0,
          0.5469911235474638
        ],
        "roughnessFactor": 0.0
      }
    },
    {
      "doubleSided": true,
      "extensions": {
        "KHR_materials_specular": {
          "specularColorFactor": [
            1.0,
            1.0,
            1.0
          ],
          "specularFactor": 1.0
        }
      },
      "name": "Sword",
      "normalTexture": {
        "index": 2
      },
      "pbrMetallicRoughness": {
        "baseColorTexture": {
          "index": 0
        },
        "metallicRoughnessTexture": {
          "index": 1
        }
      }
    }
  ],
  "meshes": [
    {
      "name": "polySurface287_gem_inside_0",
      "primitives": [
        {
          "attributes": {
            "NORMAL": 1,
            "POSITION": 0,
            "TEXCOORD_0": 2
          },
          "indices": 3,
          "material": 0,
          "mode": 4
        }
      ]
    },
    {
      "name": "polySurface287_gem_0",
      "primitives": [
        {
          "attributes": {
            "NORMAL": 5,
            "POSITION": 4,
            "TEXCOORD_0": 6
          },
          "indices": 7,
          "material": 1,
          "mode": 4
        }
      ]
    },
    {
      "name": "polySurface287_Sword_0",
      "primitives": [
        {
          "attributes": {
            "NORMAL": 9,
            "POSITION": 8,
            "TANGENT": 10,
            "TEXCOORD_0": 11
          },
          "indices": 12,
          "material": 2,
          "mode": 4
        }
      ]
    },
    {
      "name": "polySurface279_Sword_0",
      "primitives": [
        {
          "attributes": {
            "NORMAL": 14,
            "POSITION": 13,
            "TANGENT": 15,
            "TEXCOORD_0": 16
          },
          "indices": 17,
          "material": 2,
          "mode": 4
        }
      ]
    }
  ],
  "nodes": [
    {
      "children": [
        1
      ],
      "matrix": [
        0.5467784404754639,
        0.837277352809906,
        1.8591291901735163e-16,
        0.0,
        0.0,
        2.220446049250313e-16,
        -1.0,
        0.0,
        -0.837277352809906,
        0.5467784404754639,
        1.2140920279689912e-16,
        0.0,
        0.0,
        0.0,
        0.0,
        1.0
      ],
      "name": "Sketchfab_model"
    },
    {
      "children": [
        2
      ],
      "matrix": [
        1.0,
        0.0,
        0.0,
        0.0,
        0.0,
        0.0,
        1.0,
        0.0,
        0.0,
        -1.0,
        0.0,
        0.0,
        0.0,
        0.0,
        0.0,
        1.0
      ],
      "name": "593d3e08b59148229a3aa240be0573e6.fbx"
    },
    {
      "children": [
        3
      ],
      "name": "RootNode"
    },
    {
      "children": [
        4,
        8
      ],
      "matrix": [
        0.009999999776482582,
        0.0,
        0.0,
        0.0,
        0.0,
        0.009999999776482582,
        0.0,
        0.0,
        0.0,
        0.0,
        0.009999999776482582,
        0.0,
        0.0,
        0.0,
        0.0,
        1.0
      ],
      "name": "group1"
    },
    {
      "children": [
        5,
        6,
        7
      ],
      "name": "polySurface287"
    },
    {
      "mesh": 0,
      "name": "polySurface287_gem_inside_0"
    },
    {
      "mesh": 1,
      "name": "polySurface287_gem_0"
    },
    {
      "mesh": 2,
      "name": "polySurface287_Sword_0"
    },
    {
      "children": [
        9
      ],
      "name": "polySurface279"
    },
    {
      "mesh": 3,
      "name": "polySurface279_Sword_0"
    }
  ],
  "samplers": [
    {
      "magFilter": 9729,
      "minFilter": 9987,
      "wrapS": 10497,
      "wrapT": 10497
    }
  ],
  "scene": 0,
  "scenes": [
    {
      "name": "Sketchfab_Scene",
      "nodes": [
        0
      ]
    }
  ],
  "textures": [
    {
      "sampler": 0,
      "source": 0
    },
    {
      "sampler": 0,
      "source": 1
    },
    {
      "sampler": 0,
      "source": 2
    }
  ]
}
