# Blender v2.93.2 OBJ File: ''
# www.blender.org
mtllib convention_wall.mtl
o 2m_Component2.001
v -3.181263 -2.017035 3.943933
v -3.281263 -2.027035 3.943933
v -3.281263 -2.017035 3.943933
v -3.181263 -2.027035 3.943933
v -3.181263 -2.027035 4.393932
v -3.181263 -2.017035 4.393932
v -3.281263 -2.017035 4.393932
v -3.281263 -2.027035 4.393932
v -1.281263 0.482965 4.093933
v -1.281263 -2.017035 4.243933
v -1.281263 -2.017035 4.093933
v -1.281263 0.482965 4.243933
v -3.281263 0.482965 4.243932
v -3.281263 -2.017035 4.243932
v -3.281263 -2.017035 4.093933
v -3.281263 0.482965 4.093933
v -1.281263 -2.027035 4.393933
v -1.381263 -2.017035 4.393933
v -1.381263 -2.027035 4.393933
v -1.281263 -2.017035 4.393933
v -1.381263 -2.027035 3.943933
v -1.381263 -2.017035 3.943933
v -1.281263 -2.017035 3.943933
v -1.281263 -2.027035 3.943933
vt 0.094382 0.662921
vt 0.094382 0.561798
vt 0.096629 0.561798
vt 0.096629 0.662921
vt 0.103371 0.584270
vt 0.101124 0.584270
vt 0.101124 0.561798
vt 0.103371 0.561798
vt 0.022472 0.662921
vt 0.000000 0.662921
vt 0.000000 0.561798
vt 0.022472 0.561798
vt 0.096629 0.662921
vt 0.096629 0.561798
vt 0.098876 0.561798
vt 0.098876 0.662921
vt 0.067416 0.561798
vt 0.089888 0.561798
vt 0.089888 0.662921
vt 0.067416 0.662921
vt 0.107865 0.584270
vt 0.105618 0.584270
vt 0.105618 0.561798
vt 0.107865 0.561798
vt 0.092135 0.662921
vt 0.092135 0.561798
vt 0.094382 0.561798
vt 0.094382 0.662921
vt 0.067416 0.662921
vt 0.044944 0.662921
vt 0.044944 0.561798
vt 0.067416 0.561798
vt 0.022472 0.561798
vt 0.044944 0.561798
vt 0.044944 0.662921
vt 0.022472 0.662921
vt 0.098876 0.561798
vt 0.101124 0.561798
vt 0.101124 0.584270
vt 0.098876 0.584270
vt 0.089888 0.662921
vt 0.089888 0.561798
vt 0.092135 0.561798
vt 0.092135 0.662921
vt 0.103371 0.561798
vt 0.105618 0.561798
vt 0.105618 0.584270
vt 0.103371 0.584270
vt 0.932584 0.561798
vt 0.898876 0.561798
vt 0.898876 0.000000
vt 0.932584 0.000000
vt 0.449438 0.561798
vt 0.449438 0.000000
vt 0.966292 0.561798
vt 0.932584 0.561798
vt 0.932584 0.000000
vt 0.966292 0.000000
vt 0.966292 0.898876
vt 0.966292 0.449438
vt 1.000000 0.449438
vt 1.000000 0.898876
vt 1.000000 0.000000
vt 1.000000 0.449438
vt 0.966292 0.449438
vt 0.966292 0.000000
vt 0.000000 0.561798
vt 0.000000 0.000000
vt 0.449438 0.000000
vt 0.449438 0.561798
vn 1.0000 0.0000 0.0000
vn 0.0000 0.0000 1.0000
vn 0.0000 -1.0000 0.0000
vn -1.0000 0.0000 0.0000
vn 0.0000 1.0000 -0.0000
vn 0.0000 0.0000 -1.0000
usemtl Foot
s 1
f 1/1/1 6/2/1 5/3/1 4/4/1
f 5/5/2 6/6/2 7/7/2 8/8/2
f 5/9/3 8/10/3 2/11/3 4/12/3
f 7/13/4 3/14/4 2/15/4 8/16/4
f 7/17/5 6/18/5 1/19/5 3/20/5
f 17/21/2 20/22/2 18/23/2 19/24/2
f 18/25/4 22/26/4 21/27/4 19/28/4
f 17/29/3 19/30/3 21/31/3 24/32/3
f 18/33/5 20/34/5 23/35/5 22/36/5
f 23/37/6 24/38/6 21/39/6 22/40/6
f 23/41/1 20/42/1 17/43/1 24/44/1
f 1/45/6 4/46/6 2/47/6 3/48/6
usemtl GSGINSERT_D_Cloth_Black
f 9/49/1 12/50/1 10/51/1 11/52/1
f 10/51/2 12/50/2 13/53/2 14/54/2
f 13/55/4 16/56/4 15/57/4 14/58/4
f 13/59/5 12/60/5 9/61/5 16/62/5
f 10/63/3 14/64/3 15/65/3 11/66/3
f 9/67/6 11/68/6 15/69/6 16/70/6
o 1m_1.003_Component3#1.004
v -4.334227 0.480047 4.093933
v -4.334227 -2.019953 4.243933
v -4.334227 -2.019953 4.093933
v -4.334227 0.480047 4.243933
v -5.334227 0.480047 4.243933
v -5.334227 -2.019953 4.243933
v -5.334227 -2.019953 4.093933
v -5.334227 0.480047 4.093933
v -5.234227 -2.019953 3.943933
v -5.334227 -2.029953 3.943933
v -5.334227 -2.019953 3.943933
v -5.234227 -2.029953 3.943933
v -5.234227 -2.029953 4.393932
v -5.234227 -2.019953 4.393932
v -5.334227 -2.019953 4.393932
v -5.334227 -2.029953 4.393932
v -4.334227 -2.029953 4.393933
v -4.434227 -2.019953 4.393933
v -4.434227 -2.029953 4.393933
v -4.334227 -2.019953 4.393933
v -4.434227 -2.029953 3.943933
v -4.434227 -2.019953 3.943933
v -4.334227 -2.019953 3.943933
v -4.334227 -2.029953 3.943933
vt 0.960784 0.392157
vt 0.960784 0.784313
vt 0.901961 0.784313
vt 0.901961 0.392157
vt 0.960784 0.745098
vt 0.964706 0.745098
vt 0.964706 0.784313
vt 0.960784 0.784313
vt 0.964706 0.529412
vt 0.964706 0.352941
vt 0.968628 0.352941
vt 0.968628 0.529412
vt 0.968628 0.784313
vt 0.964706 0.784313
vt 0.964706 0.745098
vt 0.968628 0.745098
vt 0.980392 0.960784
vt 0.941176 0.960784
vt 0.941176 0.784313
vt 0.980392 0.784313
vt 0.968628 0.745098
vt 0.964706 0.745098
vt 0.964706 0.705882
vt 0.968628 0.705882
vt 0.964706 0.705882
vt 0.964706 0.529412
vt 0.968628 0.529412
vt 0.968628 0.705882
vt 0.901961 0.784313
vt 0.941177 0.784313
vt 0.941177 0.960784
vt 0.901961 0.960784
vt 0.960784 0.705882
vt 0.960784 0.529412
vt 0.964706 0.529412
vt 0.964706 0.705882
vt 1.000000 0.176471
vt 0.960784 0.176471
vt 0.960784 0.000000
vt 1.000000 0.000000
vt 0.960784 0.176471
vt 1.000000 0.176471
vt 1.000000 0.352941
vt 0.960784 0.352941
vt 0.960784 0.705882
vt 0.964706 0.705882
vt 0.964706 0.745098
vt 0.960784 0.745098
vt 0.960784 0.529412
vt 0.960784 0.352941
vt 0.964706 0.352941
vt 0.964706 0.529412
vt 0.784314 0.000000
vt 0.784313 0.980392
vt 0.392157 0.980392
vt 0.392157 0.000000
vt 0.901961 0.980392
vt 0.843137 0.980392
vt 0.843137 0.000000
vt 0.901961 0.000000
vt 0.901961 0.392157
vt 0.901961 0.000000
vt 0.960784 0.000000
vt 0.960784 0.392157
vt 0.000000 0.980392
vt 0.000000 0.000000
vt 0.392157 0.000000
vt 0.392157 0.980392
vt 0.843137 0.980392
vt 0.843137 0.000000
vn 0.0000 -1.0000 0.0000
vn 0.0000 0.0000 -1.0000
vn 1.0000 0.0000 0.0000
vn 0.0000 0.0000 1.0000
vn -1.0000 0.0000 0.0000
vn 0.0000 1.0000 0.0000
usemtl Foot
s 1
f 26/71/7 30/72/7 31/73/7 27/74/7
f 33/75/8 36/76/8 34/77/8 35/78/8
f 33/79/9 38/80/9 37/81/9 36/82/9
f 37/83/10 38/84/10 39/85/10 40/86/10
f 37/87/7 40/88/7 34/89/7 36/90/7
f 41/91/10 44/92/10 42/93/10 43/94/10
f 39/95/11 35/96/11 34/97/11 40/98/11
f 39/99/12 38/100/12 33/101/12 35/102/12
f 42/103/11 46/104/11 45/105/11 43/106/11
f 41/107/7 43/108/7 45/109/7 48/110/7
f 42/111/12 44/112/12 47/113/12 46/114/12
f 47/115/8 48/116/8 45/117/8 46/118/8
f 47/119/9 44/120/9 41/121/9 48/122/9
usemtl GSGINSERT_D_Cloth_Black
f 26/123/10 28/124/10 29/125/10 30/126/10
f 29/127/11 32/128/11 31/129/11 30/130/11
f 29/131/12 28/132/12 25/133/12 32/134/12
f 25/135/8 27/136/8 31/137/8 32/138/8
f 25/139/9 28/124/9 26/123/9 27/140/9
