{
  "accessors": [
    {
      "bufferView": 2,
      "componentType": 5126,
      "count": 21475,
      "max": [
        2.9361720085144043,
        8.358421325683594,
        0.5248141288757324
      ],
      "min": [
        -3.163036346435547,
        -8.124322891235352,
        -0.5248117446899414
      ],
      "type": "VEC3"
    },
    {
      "bufferView": 2,
      "byteOffset": 257700,
      "componentType": 5126,
      "count": 21475,
      "max": [
        1.0,
        1.0,
        1.0
      ],
      "min": [
        -1.0,
        -1.0,
        -1.0
      ],
      "type": "VEC3"
    },
    {
      "bufferView": 3,
      "componentType": 5126,
      "count": 21475,
      "max": [
        1.0,
        1.0,
        1.0,
        1.0
      ],
      "min": [
        -1.0,
        -1.0,
        -1.0,
        -1.0
      ],
      "type": "VEC4"
    },
    {
      "bufferView": 1,
      "componentType": 5126,
      "count": 21475,
      "max": [
        0.9980156421661377,
        0.998046875
      ],
      "min": [
        -0.998046875,
        0.0019531248835846782
      ],
      "type": "VEC2"
    },
    {
      "bufferView": 0,
      "componentType": 5125,
      "count": 98472,
      "type": "SCALAR"
    },
    {
      "bufferView": 2,
      "byteOffset": 515400,
      "componentType": 5126,
      "count": 542,
      "max": [
        0.3491279184818268,
        5.957780838012695,
        0.5337700843811035
      ],
      "min": [
        -0.3491279184818268,
        -7.871945858001709,
        -0.5337677001953125
      ],
      "type": "VEC3"
    },
    {
      "bufferView": 2,
      "byteOffset": 521904,
      "componentType": 5126,
      "count": 542,
      "max": [
        0.9999380111694336,
        0.9965764880180359,
        0.9999997615814209
      ],
      "min": [
        -0.9999379515647888,
        -1.0,
        -0.9999998211860657
      ],
      "type": "VEC3"
    },
    {
      "bufferView": 1,
      "byteOffset": 171800,
      "componentType": 5126,
      "count": 542,
      "max": [
        0.9520726799964905,
        0.9096781611442566
      ],
      "min": [
        -0.9774938821792603,
        0.0019531119614839554
      ],
      "type": "VEC2"
    },
    {
      "bufferView": 0,
      "byteOffset": 393888,
      "componentType": 5125,
      "count": 2196,
      "type": "SCALAR"
    },
    {
      "bufferView": 2,
      "byteOffset": 528408,
      "componentType": 5126,
      "count": 1039,
      "max": [
        0.39421147108078003,
        5.95894718170166,
        0.5625075101852417
      ],
      "min": [
        -0.39421147108078003,
        -7.871945858001709,
        -0.5625051259994507
      ],
      "type": "VEC3"
    },
    {
      "bufferView": 2,
      "byteOffset": 540876,
      "componentType": 5126,
      "count": 1039,
      "max": [
        1.0,
        1.0,
        1.0
      ],
      "min": [
        -1.0,
        -1.0,
        -1.0
      ],
      "type": "VEC3"
    },
    {
      "bufferView": 1,
      "byteOffset": 176136,
      "componentType": 5126,
      "count": 1039,
      "max": [
        0.952120304107666,
        0.9101462960243225
      ],
      "min": [
        -0.9774938821792603,
        0.0019531119614839554
      ],
      "type": "VEC2"
    },
    {
      "bufferView": 0,
      "byteOffset": 402672,
      "componentType": 5125,
      "count": 4944,
      "type": "SCALAR"
    }
  ],
  "asset": {
    "extras": {
      "author": "Art_workshop (https://sketchfab.com/art_workshop)",
      "license": "CC-BY-4.0 (http://creativecommons.org/licenses/by/4.0/)",
      "source": "https://sketchfab.com/3d-models/verdict-axe-free-408d8c9ed9014fdaae2a97ad448d4519",
      "title": "Verdict Axe Free"
    },
    "generator": "Sketchfab-16.14.0",
    "version": "2.0"
  },
  "bufferViews": [
    {
      "buffer": 0,
      "byteLength": 422448,
      "name": "floatBufferViews",
      "target": 34963
    },
    {
      "buffer": 0,
      "byteLength": 184448,
      "byteOffset": 422448,
      "byteStride": 8,
      "name": "floatBufferViews",
      "target": 34962
    },
    {
      "buffer": 0,
      "byteLength": 553344,
      "byteOffset": 606896,
      "byteStride": 12,
      "name": "floatBufferViews",
      "target": 34962
    },
    {
      "buffer": 0,
      "byteLength": 343600,
      "byteOffset": 1160240,
      "byteStride": 16,
      "name": "floatBufferViews",
      "target": 34962
    }
  ],
  "buffers": [
    {
      "byteLength": 1503840,
      "uri": "scene.bin"
    }
  ],
  "extensionsUsed": [
    "KHR_materials_specular",
    "KHR_materials_emissive_strength",
    "KHR_materials_transmission"
  ],
  "images": [
    {
      "uri": "textures/lambert1_baseColor.png"
    },
    {
      "uri": "textures/lambert1_metallicRoughness.png"
    },
    {
      "uri": "textures/lambert1_normal.png"
    }
  ],
  "materials": [
    {
      "doubleSided": true,
      "extensions": {
        "KHR_materials_specular": {
          "specularColorFactor": [
            1.0,
            1.0,
            1.0
          ],
          "specularFactor": 1.0
        }
      },
      "name": "lambert1",
      "normalTexture": {
        "index": 2
      },
      "pbrMetallicRoughness": {
        "baseColorTexture": {
          "index": 0
        },
        "metallicRoughnessTexture": {
          "index": 1
        }
      }
    },
    {
      "doubleSided": true,
      "emissiveFactor": [
        0.0,
        0.8051936435091387,
        1.0
      ],
      "extensions": {
        "KHR_materials_emissive_strength": {
          "emissiveStrength": 1.1377107827291832
        },
        "KHR_materials_specular": {
          "specularColorFactor": [
            1.0,
            1.0,
            1.0
          ],
          "specularFactor": 1.0
        }
      },
      "name": "Inside",
      "pbrMetallicRoughness": {
        "baseColorFactor": [
          0.0,
          0.5032586473249548,
          1.0,
          1.0
        ],
        "roughnessFactor": 0.0
      }
    },
    {
      "alphaMode": "BLEND",
      "doubleSided": true,
      "extensions": {
        "KHR_materials_specular": {
          "specularColorFactor": [
            1.0,
            1.0,
            1.0
          ],
          "specularFactor": 1.0
        },
        "KHR_materials_transmission": {
          "transmissionFactor": 0.8313137047204491
        }
      },
      "name": "Outside",
      "pbrMetallicRoughness": {
        "baseColorFactor": [
          0.0,
          0.0014916885321253363,
          1.0,
          0.25
        ],
        "roughnessFactor": 0.0
      }
    }
  ],
  "meshes": [
    {
      "name": "polySurface265_lambert1_0",
      "primitives": [
        {
          "attributes": {
            "NORMAL": 1,
            "POSITION": 0,
            "TANGENT": 2,
            "TEXCOORD_0": 3
          },
          "indices": 4,
          "material": 0,
          "mode": 4
        }
      ]
    },
    {
      "name": "polySurface267_Inside_0",
      "primitives": [
        {
          "attributes": {
            "NORMAL": 6,
            "POSITION": 5,
            "TEXCOORD_0": 7
          },
          "indices": 8,
          "material": 1,
          "mode": 4
        }
      ]
    },
    {
      "name": "polySurface266_Outside_0",
      "primitives": [
        {
          "attributes": {
            "NORMAL": 10,
            "POSITION": 9,
            "TEXCOORD_0": 11
          },
          "indices": 12,
          "material": 2,
          "mode": 4
        }
      ]
    }
  ],
  "nodes": [
    {
      "children": [
        1
      ],
      "matrix": [
        -0.5985970497131348,
        0.8010503053665161,
        1.7786889858018376e-16,
        0.0,
        0.0,
        2.220446049250313e-16,
        -1.0,
        0.0,
        -0.8010503053665161,
        -0.5985970497131348,
        -1.3291524541284233e-16,
        0.0,
        0.0,
        0.0,
        0.0,
        1.0
      ],
      "name": "Sketchfab_model"
    },
    {
      "children": [
        2
      ],
      "matrix": [
        1.0,
        0.0,
        0.0,
        0.0,
        0.0,
        0.0,
        1.0,
        0.0,
        0.0,
        -1.0,
        0.0,
        0.0,
        0.0,
        0.0,
        0.0,
        1.0
      ],
      "name": "fb6ec2a3149d44ea8a24463b1ea6e448.fbx"
    },
    {
      "children": [
        3,
        5,
        7
      ],
      "name": "RootNode"
    },
    {
      "children": [
        4
      ],
      "matrix": [
        0.009999999776482582,
        0.0,
        0.0,
        0.0,
        0.0,
        0.009999999776482582,
        0.0,
        0.0,
        0.0,
        0.0,
        0.009999999776482582,
        0.0,
        0.0,
        0.0,
        0.0,
        1.0
      ],
      "name": "polySurface265"
    },
    {
      "mesh": 0,
      "name": "polySurface265_lambert1_0"
    },
    {
      "children": [
        6
      ],
      "matrix": [
        0.009999999776482582,
        0.0,
        0.0,
        0.0,
        0.0,
        0.009999999776482582,
        0.0,
        0.0,
        0.0,
        0.0,
        0.009999999776482582,
        0.0,
        0.0,
        1.1102230246251565e-16,
        0.0,
        1.0
      ],
      "name": "polySurface267"
    },
    {
      "mesh": 1,
      "name": "polySurface267_Inside_0"
    },
    {
      "children": [
        8
      ],
      "matrix": [
        0.009999999776482582,
        0.0,
        0.0,
        0.0,
        0.0,
        0.009999999776482582,
        0.0,
        0.0,
        0.0,
        0.0,
        0.009999999776482582,
        0.0,
        0.0,
        1.1102230246251565e-16,
        0.0,
        1.0
      ],
      "name": "polySurface266"
    },
    {
      "mesh": 2,
      "name": "polySurface266_Outside_0"
    }
  ],
  "samplers": [
    {
      "magFilter": 9729,
      "minFilter": 9987,
      "wrapS": 10497,
      "wrapT": 10497
    }
  ],
  "scene": 0,
  "scenes": [
    {
      "name": "Sketchfab_Scene",
      "nodes": [
        0
      ]
    }
  ],
  "textures": [
    {
      "sampler": 0,
      "source": 0
    },
    {
      "sampler": 0,
      "source": 1
    },
    {
      "sampler": 0,
      "source": 2
    }
  ]
}
