{
  "accessors": [
    {
      "bufferView": 2,
      "componentType": 5126,
      "count": 14455,
      "max": [
        1.9671019315719604,
        9.823308944702148,
        0.3996391296386719
      ],
      "min": [
        -1.9671019315719604,
        -9.809244155883789,
        -0.39963918924331665
      ],
      "type": "VEC3"
    },
    {
      "bufferView": 2,
      "byteOffset": 173460,
      "componentType": 5126,
      "count": 14455,
      "max": [
        1.0,
        1.0,
        1.0
      ],
      "min": [
        -1.0,
        -1.0,
        -1.0
      ],
      "type": "VEC3"
    },
    {
      "bufferView": 3,
      "componentType": 5126,
      "count": 14455,
      "max": [
        1.0,
        1.0,
        1.0,
        1.0
      ],
      "min": [
        -1.0,
        -0.9998791813850403,
        -1.0,
        -1.0
      ],
      "type": "VEC4"
    },
    {
      "bufferView": 1,
      "componentType": 5126,
      "count": 14455,
      "max": [
        0.9980080723762512,
        0.994064211845398
      ],
      "min": [
        -0.9980079531669617,
        0.0019841601606458426
      ],
      "type": "VEC2"
    },
    {
      "bufferView": 0,
      "componentType": 5125,
      "count": 69744,
      "type": "SCALAR"
    },
    {
      "bufferView": 2,
      "byteOffset": 346920,
      "componentType": 5126,
      "count": 370,
      "max": [
        0.12426567077636719,
        8.702919960021973,
        0.49422192573547363
      ],
      "min": [
        -0.12426590919494629,
        2.305015802383423,
        -0.494221955537796
      ],
      "type": "VEC3"
    },
    {
      "bufferView": 2,
      "byteOffset": 351360,
      "componentType": 5126,
      "count": 370,
      "max": [
        0.9999967217445374,
        0.9999967813491821,
        1.0
      ],
      "min": [
        -0.9999966025352478,
        -0.9999967217445374,
        -1.0
      ],
      "type": "VEC3"
    },
    {
      "bufferView": 1,
      "byteOffset": 115640,
      "componentType": 5126,
      "count": 370,
      "max": [
        0.7061796188354492,
        0.9799270033836365
      ],
      "min": [
        -0.978471040725708,
        0.019567366689443588
      ],
      "type": "VEC2"
    },
    {
      "bufferView": 0,
      "byteOffset": 278976,
      "componentType": 5125,
      "count": 1800,
      "type": "SCALAR"
    },
    {
      "bufferView": 2,
      "byteOffset": 355800,
      "componentType": 5126,
      "count": 74,
      "max": [
        0.06672829389572144,
        8.656063079833984,
        0.45789116621017456
      ],
      "min": [
        -0.06701105833053589,
        2.3678181171417236,
        -0.45789119601249695
      ],
      "type": "VEC3"
    },
    {
      "bufferView": 2,
      "byteOffset": 356688,
      "componentType": 5126,
      "count": 74,
      "max": [
        0.9881472587585449,
        0.9538096785545349,
        1.0
      ],
      "min": [
        -0.988072395324707,
        -0.9587416052818298,
        -1.0
      ],
      "type": "VEC3"
    },
    {
      "bufferView": 1,
      "byteOffset": 118600,
      "componentType": 5126,
      "count": 74,
      "max": [
        0.7061276435852051,
        0.9793519973754883
      ],
      "min": [
        0.021528948098421097,
        0.020164471119642258
      ],
      "type": "VEC2"
    },
    {
      "bufferView": 0,
      "byteOffset": 286176,
      "componentType": 5125,
      "count": 216,
      "type": "SCALAR"
    }
  ],
  "asset": {
    "extras": {
      "author": "Art_workshop (https://sketchfab.com/art_workshop)",
      "license": "CC-BY-4.0 (http://creativecommons.org/licenses/by/4.0/)",
      "source": "https://sketchfab.com/3d-models/song-of-broken-pines-sword-free-15558290dfa14315be78a3404b92241a",
      "title": "Song Of Broken Pines Sword Free"
    },
    "generator": "Sketchfab-16.14.0",
    "version": "2.0"
  },
  "bufferViews": [
    {
      "buffer": 0,
      "byteLength": 287040,
      "name": "floatBufferViews",
      "target": 34963
    },
    {
      "buffer": 0,
      "byteLength": 119192,
      "byteOffset": 287040,
      "byteStride": 8,
      "name": "floatBufferViews",
      "target": 34962
    },
    {
      "buffer": 0,
      "byteLength": 357576,
      "byteOffset": 406232,
      "byteStride": 12,
      "name": "floatBufferViews",
      "target": 34962
    },
    {
      "buffer": 0,
      "byteLength": 231280,
      "byteOffset": 763808,
      "byteStride": 16,
      "name": "floatBufferViews",
      "target": 34962
    }
  ],
  "buffers": [
    {
      "byteLength": 995088,
      "uri": "scene.bin"
    }
  ],
  "extensionsUsed": [
    "KHR_materials_specular",
    "KHR_materials_transmission",
    "KHR_materials_emissive_strength"
  ],
  "images": [
    {
      "uri": "textures/Sword172_baseColor.png"
    },
    {
      "uri": "textures/Sword172_metallicRoughness.png"
    },
    {
      "uri": "textures/Sword172_emissive.png"
    },
    {
      "uri": "textures/Sword172_normal.png"
    }
  ],
  "materials": [
    {
      "doubleSided": true,
      "emissiveFactor": [
        0.7,
        0.7,
        0.7
      ],
      "emissiveTexture": {
        "index": 2
      },
      "extensions": {
        "KHR_materials_specular": {
          "specularColorFactor": [
            1.0,
            1.0,
            1.0
          ],
          "specularFactor": 1.0
        }
      },
      "name": "Sword172",
      "normalTexture": {
        "index": 3
      },
      "pbrMetallicRoughness": {
        "baseColorTexture": {
          "index": 0
        },
        "metallicRoughnessTexture": {
          "index": 1
        }
      }
    },
    {
      "alphaMode": "BLEND",
      "doubleSided": true,
      "emissiveFactor": [
        0.080318671711311,
        0.356693821549515,
        0.3702687070181967
      ],
      "extensions": {
        "KHR_materials_specular": {
          "specularColorFactor": [
            1.0,
            1.0,
            1.0
          ],
          "specularFactor": 1.0
        },
        "KHR_materials_transmission": {
          "transmissionFactor": 1.0
        }
      },
      "name": "Gem_outside",
      "pbrMetallicRoughness": {
        "baseColorFactor": [
          0.19806931955994894,
          0.8796223968878321,
          0.9130986517934192,
          0.25
        ],
        "roughnessFactor": 0.0
      }
    },
    {
      "doubleSided": true,
      "emissiveFactor": [
        0.0,
        0.15495647323461037,
        1.0
      ],
      "extensions": {
        "KHR_materials_emissive_strength": {
          "emissiveStrength": 10.0
        },
        "KHR_materials_specular": {
          "specularColorFactor": [
            1.0,
            1.0,
            1.0
          ],
          "specularFactor": 1.0
        }
      },
      "name": "Gem_inside",
      "pbrMetallicRoughness": {
        "roughnessFactor": 0.0
      }
    }
  ],
  "meshes": [
    {
      "name": "Sword_Sword172_0",
      "primitives": [
        {
          "attributes": {
            "NORMAL": 1,
            "POSITION": 0,
            "TANGENT": 2,
            "TEXCOORD_0": 3
          },
          "indices": 4,
          "material": 0,
          "mode": 4
        }
      ]
    },
    {
      "name": "Sword_Gem_outside_0",
      "primitives": [
        {
          "attributes": {
            "NORMAL": 6,
            "POSITION": 5,
            "TEXCOORD_0": 7
          },
          "indices": 8,
          "material": 1,
          "mode": 4
        }
      ]
    },
    {
      "name": "Sword_Gem_inside_0",
      "primitives": [
        {
          "attributes": {
            "NORMAL": 10,
            "POSITION": 9,
            "TEXCOORD_0": 11
          },
          "indices": 12,
          "material": 2,
          "mode": 4
        }
      ]
    }
  ],
  "nodes": [
    {
      "children": [
        1
      ],
      "matrix": [
        0.55788254737854,
        -0.8299199342727661,
        -1.842792439250043e-16,
        0.0,
        0.0,
        2.220446049250313e-16,
        -1.0,
        0.0,
        0.8299199342727661,
        0.55788254737854,
        1.2387480982723798e-16,
        0.0,
        0.0,
        0.0,
        0.0,
        1.0
      ],
      "name": "Sketchfab_model"
    },
    {
      "children": [
        2
      ],
      "matrix": [
        1.0,
        0.0,
        0.0,
        0.0,
        0.0,
        0.0,
        1.0,
        0.0,
        0.0,
        -1.0,
        0.0,
        0.0,
        0.0,
        0.0,
        0.0,
        1.0
      ],
      "name": "4da17095b0ad4664a3ffa6bf509a71aa.fbx"
    },
    {
      "children": [
        3
      ],
      "name": "RootNode"
    },
    {
      "children": [
        4,
        5,
        6
      ],
      "matrix": [
        0.009999999776482582,
        0.0,
        0.0,
        0.0,
        0.0,
        0.009999999776482582,
        0.0,
        0.0,
        0.0,
        0.0,
        0.009999999776482582,
        0.0,
        0.0,
        0.0,
        0.0,
        1.0
      ],
      "name": "Sword"
    },
    {
      "mesh": 0,
      "name": "Sword_Sword172_0"
    },
    {
      "mesh": 1,
      "name": "Sword_Gem_outside_0"
    },
    {
      "mesh": 2,
      "name": "Sword_Gem_inside_0"
    }
  ],
  "samplers": [
    {
      "magFilter": 9729,
      "minFilter": 9987,
      "wrapS": 10497,
      "wrapT": 10497
    }
  ],
  "scene": 0,
  "scenes": [
    {
      "name": "Sketchfab_Scene",
      "nodes": [
        0
      ]
    }
  ],
  "textures": [
    {
      "sampler": 0,
      "source": 0
    },
    {
      "sampler": 0,
      "source": 1
    },
    {
      "sampler": 0,
      "source": 2
    },
    {
      "sampler": 0,
      "source": 3
    }
  ]
}
